<svg width="269" height="297" viewBox="0 0 269 297" fill="none" xmlns="http://www.w3.org/2000/svg">
<g filter="url(#filter0_d_220_19)">
<rect y="1" width="268.72" height="296.928" rx="8" fill="white"/>
</g>
<path d="M58.1785 44.4334V34.9789H63.8845V35.9945H59.3234V39.1891H63.589V40.2047H59.3234V43.4178H63.9583V44.4334H58.1785ZM67.887 44.5996C67.4376 44.5996 67.0298 44.515 66.6636 44.3457C66.2974 44.1733 66.0065 43.9256 65.7911 43.6024C65.5757 43.2762 65.4679 42.8823 65.4679 42.4206C65.4679 42.0144 65.548 41.6851 65.708 41.4327C65.868 41.1773 66.0819 40.9772 66.3497 40.8326C66.6174 40.6879 66.9129 40.5802 67.236 40.5094C67.5623 40.4355 67.89 40.3771 68.2194 40.334C68.6502 40.2786 68.9995 40.237 69.2673 40.2093C69.5381 40.1786 69.7351 40.1278 69.8582 40.057C69.9844 39.9862 70.0475 39.8631 70.0475 39.6877V39.6507C70.0475 39.1952 69.9228 38.8413 69.6735 38.589C69.4273 38.3366 69.0534 38.2104 68.5517 38.2104C68.0316 38.2104 67.6238 38.3243 67.3284 38.552C67.0329 38.7798 66.8252 39.0229 66.7052 39.2814L65.6711 38.9121C65.8557 38.4812 66.1019 38.1458 66.4097 37.9057C66.7205 37.6626 67.0591 37.4933 67.4253 37.3979C67.7946 37.2994 68.1578 37.2502 68.5148 37.2502C68.7426 37.2502 69.0042 37.2779 69.2996 37.3333C69.5981 37.3856 69.8859 37.4948 70.1629 37.661C70.443 37.8272 70.6753 38.0781 70.86 38.4135C71.0446 38.749 71.137 39.1983 71.137 39.7615V44.4334H70.0475V43.4732H69.9921C69.9182 43.6271 69.7951 43.7917 69.6228 43.9671C69.4504 44.1426 69.2211 44.2918 68.9349 44.4149C68.6487 44.5381 68.2994 44.5996 67.887 44.5996ZM68.0532 43.6209C68.484 43.6209 68.8472 43.5363 69.1427 43.367C69.4412 43.1977 69.6659 42.9792 69.8167 42.7115C69.9705 42.4437 70.0475 42.1621 70.0475 41.8666V40.8695C70.0013 40.9249 69.8998 40.9757 69.7428 41.0218C69.5889 41.0649 69.4104 41.1034 69.2073 41.1372C69.0072 41.168 68.8118 41.1957 68.621 41.2203C68.4333 41.2419 68.2809 41.2604 68.164 41.2757C67.8808 41.3127 67.6161 41.3727 67.3699 41.4558C67.1268 41.5358 66.9298 41.6574 66.779 41.8205C66.6313 41.9805 66.5574 42.199 66.5574 42.476C66.5574 42.8546 66.6975 43.1408 66.9775 43.3347C67.2607 43.5255 67.6192 43.6209 68.0532 43.6209ZM73.1255 44.4334V37.3425H74.1781V38.4135H74.2519C74.3812 38.0627 74.6151 37.778 74.9536 37.5595C75.2922 37.341 75.6738 37.2317 76.0985 37.2317C76.1785 37.2317 76.2786 37.2332 76.3986 37.2363C76.5186 37.2394 76.6094 37.244 76.671 37.2502V38.3581C76.634 38.3489 76.5494 38.335 76.4171 38.3166C76.2878 38.295 76.1508 38.2843 76.0062 38.2843C75.4892 38.2843 75.0614 38.4412 74.7228 38.7551C74.3843 39.0691 74.215 39.4661 74.215 39.9462V44.4334H73.1255ZM79.0519 40.1678V44.4334H77.9624V37.3425H79.015V38.4505H79.1073C79.2735 38.0904 79.5259 37.8011 79.8644 37.5826C80.203 37.361 80.64 37.2502 81.1755 37.2502C81.8926 37.2502 82.4712 37.4702 82.9113 37.9103C83.3545 38.3504 83.5761 39.0229 83.5761 39.9277V44.4334H82.4866V40.0016C82.4866 39.4445 82.3419 39.0106 82.0526 38.6997C81.7633 38.3858 81.3663 38.2289 80.8616 38.2289C80.3415 38.2289 79.909 38.3981 79.5643 38.7367C79.2227 39.0721 79.0519 39.5492 79.0519 40.1678ZM85.5669 44.4334V37.3425H86.6564V44.4334H85.5669ZM86.1209 36.1607C85.9085 36.1607 85.7254 36.0884 85.5715 35.9437C85.4207 35.7991 85.3453 35.6252 85.3453 35.422C85.3453 35.2189 85.4207 35.045 85.5715 34.9004C85.7254 34.7557 85.9085 34.6834 86.1209 34.6834C86.3333 34.6834 86.5148 34.7557 86.6656 34.9004C86.8195 35.045 86.8965 35.2189 86.8965 35.422C86.8965 35.6252 86.8195 35.7991 86.6656 35.9437C86.5148 36.0884 86.3333 36.1607 86.1209 36.1607ZM89.7414 40.1678V44.4334H88.6519V37.3425H89.7044V38.4505H89.7968C89.963 38.0904 90.2153 37.8011 90.5539 37.5826C90.8924 37.361 91.3294 37.2502 91.865 37.2502C92.582 37.2502 93.1606 37.4702 93.6007 37.9103C94.0439 38.3504 94.2655 39.0229 94.2655 39.9277V44.4334H93.176V40.0016C93.176 39.4445 93.0314 39.0106 92.7421 38.6997C92.4528 38.3858 92.0558 38.2289 91.551 38.2289C91.0309 38.2289 90.5985 38.3981 90.2538 38.7367C89.9122 39.0721 89.7414 39.5492 89.7414 40.1678ZM99.1186 47.2402C98.3276 47.2402 97.7013 47.0956 97.2397 46.8063C96.7811 46.5201 96.441 46.1907 96.2194 45.8184L97.0873 45.209C97.1858 45.3382 97.3105 45.486 97.4613 45.6522C97.6121 45.8214 97.8183 45.9676 98.0799 46.0907C98.3446 46.2169 98.6908 46.28 99.1186 46.28C99.691 46.28 100.163 46.1415 100.536 45.8645C100.908 45.5875 101.094 45.1536 101.094 44.5627V43.1223H101.002C100.922 43.2516 100.808 43.4116 100.66 43.6024C100.516 43.7902 100.307 43.9579 100.033 44.1056C99.7618 44.2503 99.3956 44.3226 98.9339 44.3226C98.3615 44.3226 97.8475 44.1872 97.392 43.9164C96.9396 43.6455 96.5811 43.2516 96.3164 42.7345C96.0548 42.2175 95.924 41.5897 95.924 40.851C95.924 40.1247 96.0517 39.4922 96.3072 38.9537C96.5626 38.412 96.9181 37.9934 97.3736 37.698C97.8291 37.3994 98.3553 37.2502 98.9524 37.2502C99.414 37.2502 99.7803 37.3271 100.051 37.481C100.325 37.6318 100.534 37.8041 100.679 37.998C100.827 38.1889 100.941 38.3458 101.021 38.4689H101.131V37.3425H102.184V44.6365C102.184 45.2459 102.045 45.7414 101.768 46.123C101.495 46.5077 101.125 46.7894 100.66 46.9679C100.199 47.1494 99.6849 47.2402 99.1186 47.2402ZM99.0817 43.3439C99.7372 43.3439 100.239 43.1223 100.587 42.6791C100.937 42.2329 101.113 41.6174 101.113 40.8326C101.113 40.0662 100.941 39.4415 100.596 38.9583C100.251 38.472 99.7464 38.2289 99.0817 38.2289C98.62 38.2289 98.2353 38.3458 97.9275 38.5797C97.6229 38.8136 97.3936 39.1275 97.2397 39.5215C97.0889 39.9154 97.0135 40.3524 97.0135 40.8326C97.0135 41.5712 97.1874 42.1744 97.5351 42.6422C97.8829 43.11 98.3984 43.3439 99.0817 43.3439ZM107.982 44.4334V34.9789H111.288C111.946 34.9789 112.489 35.0927 112.917 35.3205C113.345 35.5452 113.664 35.8483 113.873 36.2299C114.082 36.6085 114.187 37.0286 114.187 37.4902C114.187 37.8965 114.114 38.2319 113.97 38.4966C113.828 38.7613 113.64 38.9706 113.407 39.1245C113.176 39.2783 112.925 39.3922 112.654 39.4661V39.5584C112.943 39.5769 113.234 39.6784 113.527 39.8631C113.819 40.0478 114.064 40.3124 114.261 40.6571C114.458 41.0018 114.556 41.4235 114.556 41.922C114.556 42.396 114.448 42.8223 114.233 43.2008C114.018 43.5794 113.677 43.8794 113.213 44.101C112.748 44.3226 112.143 44.4334 111.398 44.4334H107.982ZM109.127 43.4178H111.398C112.146 43.4178 112.677 43.2731 112.991 42.9838C113.308 42.6915 113.467 42.3375 113.467 41.922C113.467 41.602 113.385 41.3065 113.222 41.0357C113.059 40.7618 112.826 40.5433 112.525 40.3801C112.223 40.214 111.866 40.1309 111.454 40.1309H109.127V43.4178ZM109.127 39.1337H111.251C111.768 39.1337 112.205 38.9844 112.562 38.6859C112.919 38.3874 113.097 37.9888 113.097 37.4902C113.097 37.0747 112.953 36.7224 112.663 36.4331C112.374 36.1407 111.915 35.9945 111.288 35.9945H109.127V39.1337ZM116.954 47.1848C116.77 47.1848 116.605 47.1694 116.46 47.1387C116.316 47.111 116.216 47.0833 116.16 47.0556L116.437 46.0953C116.834 46.1969 117.165 46.1938 117.43 46.0861C117.698 45.9815 117.927 45.6645 118.118 45.1351L118.358 44.4703L115.736 37.3425H116.917L118.875 42.9931H118.949L120.906 37.3425H122.088L119.041 45.5783C118.641 46.6493 117.945 47.1848 116.954 47.1848ZM127.33 44.4334V34.9789H130.524C131.266 34.9789 131.872 35.1127 132.343 35.3805C132.817 35.6452 133.168 36.0037 133.396 36.4561C133.624 36.9086 133.738 37.4133 133.738 37.9703C133.738 38.5274 133.624 39.0337 133.396 39.4892C133.171 39.9447 132.823 40.3078 132.353 40.5787C131.882 40.8464 131.279 40.9803 130.543 40.9803H128.475V44.4334H127.33ZM128.475 39.9647H130.506C131.266 39.9647 131.806 39.7738 132.126 39.3922C132.45 39.0106 132.611 38.5366 132.611 37.9703C132.611 37.401 132.45 36.9301 132.126 36.5577C131.803 36.1822 131.257 35.9945 130.488 35.9945H128.475V39.9647ZM136.524 34.9789V44.4334H135.434V34.9789H136.524ZM140.606 44.5996C140.156 44.5996 139.749 44.515 139.382 44.3457C139.016 44.1733 138.725 43.9256 138.51 43.6024C138.294 43.2762 138.187 42.8823 138.187 42.4206C138.187 42.0144 138.267 41.6851 138.427 41.4327C138.587 41.1773 138.801 40.9772 139.068 40.8326C139.336 40.6879 139.632 40.5802 139.955 40.5094C140.281 40.4355 140.609 40.3771 140.938 40.334C141.369 40.2786 141.718 40.237 141.986 40.2093C142.257 40.1786 142.454 40.1278 142.577 40.057C142.703 39.9862 142.766 39.8631 142.766 39.6877V39.6507C142.766 39.1952 142.642 38.8413 142.392 38.589C142.146 38.3366 141.772 38.2104 141.27 38.2104C140.75 38.2104 140.343 38.3243 140.047 38.552C139.752 38.7798 139.544 39.0229 139.424 39.2814L138.39 38.9121C138.574 38.4812 138.821 38.1458 139.128 37.9057C139.439 37.6626 139.778 37.4933 140.144 37.3979C140.513 37.2994 140.877 37.2502 141.234 37.2502C141.461 37.2502 141.723 37.2779 142.018 37.3333C142.317 37.3856 142.605 37.4948 142.882 37.661C143.162 37.8272 143.394 38.0781 143.579 38.4135C143.763 38.749 143.856 39.1983 143.856 39.7615V44.4334H142.766V43.4732H142.711C142.637 43.6271 142.514 43.7917 142.342 43.9671C142.169 44.1426 141.94 44.2918 141.654 44.4149C141.367 44.5381 141.018 44.5996 140.606 44.5996ZM140.772 43.6209C141.203 43.6209 141.566 43.5363 141.861 43.367C142.16 43.1977 142.385 42.9792 142.535 42.7115C142.689 42.4437 142.766 42.1621 142.766 41.8666V40.8695C142.72 40.9249 142.619 40.9757 142.462 41.0218C142.308 41.0649 142.129 41.1034 141.926 41.1372C141.726 41.168 141.531 41.1957 141.34 41.2203C141.152 41.2419 141 41.2604 140.883 41.2757C140.6 41.3127 140.335 41.3727 140.089 41.4558C139.846 41.5358 139.649 41.6574 139.498 41.8205C139.35 41.9805 139.276 42.199 139.276 42.476C139.276 42.8546 139.416 43.1408 139.696 43.3347C139.979 43.5255 140.338 43.6209 140.772 43.6209ZM148.928 37.3425V38.2658H147.414V42.4022C147.414 42.7099 147.458 42.9407 147.548 43.0946C147.64 43.2454 147.757 43.347 147.899 43.3993C148.043 43.4486 148.196 43.4732 148.356 43.4732C148.476 43.4732 148.574 43.467 148.651 43.4547C148.728 43.4393 148.79 43.427 148.836 43.4178L149.057 44.3965C148.983 44.4242 148.88 44.4519 148.748 44.4796C148.616 44.5104 148.448 44.5257 148.245 44.5257C147.937 44.5257 147.635 44.4596 147.34 44.3272C147.048 44.1949 146.804 43.9933 146.611 43.7225C146.42 43.4516 146.324 43.11 146.324 42.6976V38.2658H145.253V37.3425H146.324V35.6436H147.414V37.3425H148.928ZM153.725 37.3425V38.2658H152.137V44.4334H151.047V38.2658H149.902V37.3425H151.047V36.3638C151.047 35.9576 151.142 35.619 151.333 35.3482C151.524 35.0773 151.772 34.8742 152.077 34.7388C152.381 34.6034 152.703 34.5357 153.041 34.5357C153.309 34.5357 153.528 34.5572 153.697 34.6003C153.866 34.6434 153.992 34.6834 154.075 34.7203L153.762 35.6621C153.706 35.6436 153.629 35.6206 153.531 35.5929C153.435 35.5652 153.309 35.5513 153.152 35.5513C152.792 35.5513 152.532 35.6421 152.372 35.8237C152.215 36.0053 152.137 36.2715 152.137 36.6223V37.3425H153.725ZM157.84 44.5811C157.2 44.5811 156.638 44.4288 156.155 44.1241C155.675 43.8194 155.3 43.3932 155.029 42.8453C154.761 42.2975 154.627 41.6574 154.627 40.9249C154.627 40.1863 154.761 39.5415 155.029 38.9906C155.3 38.4397 155.675 38.0119 156.155 37.7072C156.638 37.4025 157.2 37.2502 157.84 37.2502C158.48 37.2502 159.04 37.4025 159.521 37.7072C160.004 38.0119 160.379 38.4397 160.647 38.9906C160.918 39.5415 161.053 40.1863 161.053 40.9249C161.053 41.6574 160.918 42.2975 160.647 42.8453C160.379 43.3932 160.004 43.8194 159.521 44.1241C159.04 44.4288 158.48 44.5811 157.84 44.5811ZM157.84 43.6024C158.326 43.6024 158.727 43.4778 159.04 43.2285C159.354 42.9792 159.587 42.6515 159.738 42.2452C159.888 41.839 159.964 41.3988 159.964 40.9249C159.964 40.4509 159.888 40.0093 159.738 39.6C159.587 39.1906 159.354 38.8598 159.04 38.6074C158.727 38.355 158.326 38.2289 157.84 38.2289C157.354 38.2289 156.954 38.355 156.64 38.6074C156.326 38.8598 156.094 39.1906 155.943 39.6C155.792 40.0093 155.717 40.4509 155.717 40.9249C155.717 41.3988 155.792 41.839 155.943 42.2452C156.094 42.6515 156.326 42.9792 156.64 43.2285C156.954 43.4778 157.354 43.6024 157.84 43.6024ZM162.716 44.4334V37.3425H163.769V38.4135H163.843C163.972 38.0627 164.206 37.778 164.544 37.5595C164.883 37.341 165.265 37.2317 165.689 37.2317C165.769 37.2317 165.869 37.2332 165.989 37.2363C166.109 37.2394 166.2 37.244 166.262 37.2502V38.3581C166.225 38.3489 166.14 38.335 166.008 38.3166C165.879 38.295 165.742 38.2843 165.597 38.2843C165.08 38.2843 164.652 38.4412 164.314 38.7551C163.975 39.0691 163.806 39.4661 163.806 39.9462V44.4334H162.716ZM167.553 44.4334V37.3425H168.606V38.4505H168.698C168.846 38.0719 169.084 37.778 169.414 37.5687C169.743 37.3564 170.138 37.2502 170.6 37.2502C171.068 37.2502 171.457 37.3564 171.768 37.5687C172.082 37.778 172.327 38.0719 172.502 38.4505H172.576C172.758 38.0842 173.03 37.7934 173.393 37.5779C173.756 37.3594 174.192 37.2502 174.7 37.2502C175.334 37.2502 175.852 37.4487 176.255 37.8457C176.658 38.2396 176.86 38.8536 176.86 39.6877V44.4334H175.771V39.6877C175.771 39.1645 175.627 38.7905 175.341 38.5659C175.055 38.3412 174.718 38.2289 174.33 38.2289C173.832 38.2289 173.445 38.3797 173.172 38.6813C172.898 38.9798 172.761 39.3584 172.761 39.8169V44.4334H171.653V39.5769C171.653 39.1737 171.522 38.849 171.26 38.6028C170.999 38.3535 170.662 38.2289 170.249 38.2289C169.966 38.2289 169.701 38.3043 169.455 38.4551C169.212 38.6059 169.015 38.8152 168.864 39.0829C168.717 39.3476 168.643 39.6538 168.643 40.0016V44.4334H167.553ZM182.139 35.9945V34.9789H189.23V35.9945H186.257V44.4334H185.112V35.9945H182.139ZM190.701 47.1848C190.517 47.1848 190.352 47.1694 190.207 47.1387C190.063 47.111 189.963 47.0833 189.907 47.0556L190.184 46.0953C190.581 46.1969 190.912 46.1938 191.177 46.0861C191.445 45.9815 191.674 45.6645 191.865 45.1351L192.105 44.4703L189.483 37.3425H190.664L192.622 42.9931H192.696L194.653 37.3425H195.835L192.788 45.5783C192.388 46.6493 191.692 47.1848 190.701 47.1848ZM197.273 47.0925V37.3425H198.326V38.4689H198.455C198.535 38.3458 198.646 38.1889 198.787 37.998C198.932 37.8041 199.138 37.6318 199.406 37.481C199.677 37.3271 200.043 37.2502 200.505 37.2502C201.102 37.2502 201.628 37.3994 202.083 37.698C202.539 37.9965 202.894 38.4197 203.15 38.9675C203.405 39.5153 203.533 40.1616 203.533 40.9064C203.533 41.6574 203.405 42.3083 203.15 42.8592C202.894 43.407 202.54 43.8317 202.088 44.1333C201.636 44.4319 201.114 44.5811 200.523 44.5811C200.067 44.5811 199.703 44.5057 199.429 44.3549C199.155 44.201 198.944 44.0272 198.796 43.8333C198.649 43.6363 198.535 43.4732 198.455 43.3439H198.362V47.0925H197.273ZM198.344 40.888C198.344 41.6912 198.518 42.3452 198.866 42.85C199.217 43.3516 199.72 43.6024 200.375 43.6024C200.831 43.6024 201.211 43.4824 201.516 43.2424C201.823 42.9992 202.054 42.673 202.208 42.2637C202.365 41.8513 202.443 41.3927 202.443 40.888C202.443 40.3894 202.366 39.94 202.213 39.5399C202.062 39.1368 201.833 38.8182 201.525 38.5843C201.22 38.3474 200.837 38.2289 200.375 38.2289C199.71 38.2289 199.206 38.4735 198.861 38.9629C198.516 39.4522 198.344 40.0939 198.344 40.888ZM208.168 44.5811C207.485 44.5811 206.895 44.4303 206.4 44.1287C205.907 43.824 205.527 43.3993 205.259 42.8546C204.995 42.3068 204.862 41.6697 204.862 40.9434C204.862 40.217 204.995 39.5769 205.259 39.0229C205.527 38.4658 205.9 38.0319 206.377 37.7211C206.857 37.4071 207.417 37.2502 208.057 37.2502C208.426 37.2502 208.791 37.3117 209.151 37.4348C209.511 37.5579 209.839 37.758 210.134 38.035C210.43 38.3089 210.665 38.672 210.841 39.1245C211.016 39.5769 211.104 40.1339 211.104 40.7956V41.2573H205.957C205.981 42.0144 206.195 42.5945 206.598 42.9977C207.005 43.4009 207.528 43.6024 208.168 43.6024C208.596 43.6024 208.963 43.5101 209.271 43.3255C209.579 43.1408 209.802 42.8638 209.941 42.4945L210.993 42.7899C210.827 43.3255 210.495 43.7579 209.996 44.0872C209.497 44.4165 208.888 44.5811 208.168 44.5811ZM205.957 40.3155H209.996C209.996 39.7154 209.821 39.2183 209.47 38.8244C209.119 38.4274 208.648 38.2289 208.057 38.2289C207.642 38.2289 207.281 38.3258 206.977 38.5197C206.672 38.7136 206.432 38.9706 206.257 39.2907C206.081 39.6077 205.981 39.9493 205.957 40.3155Z" fill="#7C89A9"/>
<path d="M52.7144 264.282V271.555H51.8337V264.282H52.7144ZM55.3046 268.273V271.555H54.4666V266.1H55.2762V266.952H55.3472C55.4751 266.675 55.6692 266.453 55.9296 266.285C56.19 266.114 56.5262 266.029 56.9381 266.029C57.4898 266.029 57.9348 266.198 58.2734 266.537C58.6143 266.875 58.7847 267.393 58.7847 268.089V271.555H57.9467V268.146C57.9467 267.717 57.8354 267.383 57.6129 267.144C57.3903 266.903 57.0849 266.782 56.6967 266.782C56.2966 266.782 55.964 266.912 55.6988 267.173C55.436 267.431 55.3046 267.798 55.3046 268.273ZM64.2798 267.322L63.527 267.535C63.4536 267.345 63.3305 267.168 63.1576 267.002C62.9848 266.836 62.7149 266.754 62.348 266.754C62.0142 266.754 61.736 266.83 61.5135 266.984C61.2933 267.136 61.1832 267.329 61.1832 267.563C61.1832 267.772 61.259 267.936 61.4105 268.057C61.562 268.178 61.7987 268.278 62.1207 268.359L62.9304 268.558C63.8963 268.794 64.3792 269.287 64.3792 270.035C64.3792 270.347 64.2893 270.627 64.1093 270.873C63.9318 271.119 63.6832 271.313 63.3636 271.455C63.044 271.597 62.6723 271.668 62.2486 271.668C61.6922 271.668 61.2317 271.548 60.8672 271.306C60.5026 271.065 60.2718 270.712 60.1747 270.248L60.9701 270.049C61.1193 270.636 61.5407 270.93 62.2343 270.93C62.625 270.93 62.9351 270.847 63.1647 270.681C63.3968 270.513 63.5128 270.312 63.5128 270.077C63.5128 269.692 63.2429 269.436 62.7031 269.31L61.794 269.097C61.2945 268.979 60.9275 268.795 60.6932 268.547C60.4611 268.296 60.3451 267.982 60.3451 267.606C60.3451 267.298 60.4316 267.026 60.6044 266.789C60.7796 266.552 61.0175 266.366 61.3182 266.232C61.6212 266.097 61.9645 266.029 62.348 266.029C62.8878 266.029 63.3115 266.147 63.6193 266.384C63.9294 266.621 64.1496 266.933 64.2798 267.322ZM68.1129 266.1V266.81H66.9482V269.992C66.9482 270.229 66.9825 270.406 67.0511 270.525C67.1222 270.641 67.2121 270.719 67.321 270.759C67.4323 270.797 67.5495 270.816 67.6726 270.816C67.7649 270.816 67.8407 270.811 67.8999 270.802C67.9591 270.79 68.0064 270.781 68.0419 270.773L68.2124 271.526C68.1555 271.548 68.0762 271.569 67.9744 271.59C67.8726 271.614 67.7436 271.626 67.5874 271.626C67.3506 271.626 67.1186 271.575 66.8913 271.473C66.6664 271.371 66.4794 271.216 66.3303 271.008C66.1835 270.799 66.1101 270.537 66.1101 270.219V266.81H65.2862V266.1H66.1101V264.793H66.9482V266.1H68.1129ZM71.0787 271.683C70.7331 271.683 70.4194 271.617 70.1377 271.487C69.8559 271.355 69.6322 271.164 69.4665 270.915C69.3008 270.665 69.2179 270.362 69.2179 270.006C69.2179 269.694 69.2795 269.441 69.4026 269.246C69.5257 269.05 69.6902 268.896 69.8962 268.785C70.1021 268.674 70.3294 268.591 70.578 268.536C70.8289 268.479 71.0811 268.434 71.3344 268.401C71.6658 268.359 71.9345 268.327 72.1405 268.305C72.3488 268.282 72.5003 268.243 72.595 268.188C72.6921 268.134 72.7406 268.039 72.7406 267.904V267.876C72.7406 267.525 72.6448 267.253 72.453 267.059C72.2636 266.865 71.976 266.768 71.5901 266.768C71.19 266.768 70.8763 266.855 70.649 267.031C70.4217 267.206 70.2619 267.393 70.1696 267.592L69.3742 267.308C69.5162 266.976 69.7056 266.718 69.9423 266.533C70.1814 266.346 70.4419 266.216 70.7236 266.143C71.0077 266.067 71.287 266.029 71.5617 266.029C71.7368 266.029 71.9381 266.05 72.1653 266.093C72.395 266.133 72.6163 266.217 72.8294 266.345C73.0448 266.473 73.2236 266.666 73.3656 266.924C73.5077 267.182 73.5787 267.528 73.5787 267.961V271.555H72.7406V270.816H72.698C72.6412 270.934 72.5465 271.061 72.4139 271.196C72.2814 271.331 72.105 271.446 71.8848 271.54C71.6646 271.635 71.3959 271.683 71.0787 271.683ZM71.2065 270.93C71.538 270.93 71.8173 270.865 72.0446 270.734C72.2743 270.604 72.4471 270.436 72.5631 270.23C72.6814 270.024 72.7406 269.808 72.7406 269.58V268.813C72.7051 268.856 72.627 268.895 72.5063 268.93C72.3879 268.964 72.2506 268.993 72.0943 269.019C71.9404 269.043 71.7901 269.064 71.6433 269.083C71.4989 269.1 71.3817 269.114 71.2918 269.126C71.074 269.154 70.8704 269.2 70.681 269.264C70.4939 269.326 70.3424 269.419 70.2264 269.545C70.1128 269.668 70.056 269.836 70.056 270.049C70.056 270.34 70.1637 270.56 70.3791 270.71C70.5969 270.856 70.8727 270.93 71.2065 270.93ZM77.4101 273.714C76.8016 273.714 76.3199 273.603 75.9647 273.38C75.612 273.16 75.3504 272.906 75.1799 272.62L75.8476 272.151C75.9233 272.251 76.0192 272.364 76.1352 272.492C76.2512 272.622 76.4098 272.735 76.6111 272.83C76.8147 272.927 77.081 272.975 77.4101 272.975C77.8504 272.975 78.2138 272.869 78.5003 272.656C78.7867 272.442 78.9299 272.109 78.9299 271.654V270.546H78.8589C78.7974 270.646 78.7098 270.769 78.5961 270.915C78.4849 271.06 78.3239 271.189 78.1132 271.303C77.9049 271.414 77.6231 271.469 77.268 271.469C76.8277 271.469 76.4323 271.365 76.0819 271.157C75.7339 270.949 75.4581 270.646 75.2545 270.248C75.0533 269.85 74.9527 269.367 74.9527 268.799C74.9527 268.24 75.0509 267.754 75.2474 267.339C75.4439 266.923 75.7174 266.601 76.0677 266.374C76.4181 266.144 76.8229 266.029 77.2822 266.029C77.6373 266.029 77.9191 266.088 78.1274 266.207C78.3381 266.323 78.4991 266.455 78.6103 266.604C78.724 266.751 78.8116 266.872 78.8731 266.967H78.9584V266.1H79.768V271.711C79.768 272.18 79.6615 272.561 79.4484 272.854C79.2377 273.15 78.9536 273.367 78.5961 273.504C78.241 273.644 77.8457 273.714 77.4101 273.714ZM77.3816 270.717C77.8859 270.717 78.2718 270.546 78.5393 270.205C78.8092 269.862 78.9441 269.388 78.9441 268.785C78.9441 268.195 78.8116 267.715 78.5464 267.343C78.2813 266.969 77.893 266.782 77.3816 266.782C77.0265 266.782 76.7306 266.872 76.4939 267.052C76.2595 267.232 76.0831 267.473 75.9647 267.776C75.8487 268.079 75.7907 268.415 75.7907 268.785C75.7907 269.353 75.9245 269.817 76.192 270.177C76.4595 270.537 76.8561 270.717 77.3816 270.717ZM81.4021 271.555V266.1H82.2118V266.924H82.2686C82.3656 266.654 82.5444 266.435 82.8048 266.267C83.0652 266.099 83.36 266.015 83.689 266.015C83.8406 266.015 83.9731 266.033 84.0868 266.068C84.2004 266.104 84.2998 266.152 84.3851 266.214L84.101 266.924C84.0418 266.893 83.9719 266.87 83.8915 266.853C83.8133 266.834 83.7222 266.825 83.618 266.825C83.2203 266.825 82.8912 266.946 82.6308 267.19C82.3704 267.432 82.2402 267.736 82.2402 268.103V271.555H81.4021ZM86.9451 271.683C86.5995 271.683 86.2858 271.617 86.0041 271.487C85.7223 271.355 85.4986 271.164 85.3329 270.915C85.1672 270.665 85.0843 270.362 85.0843 270.006C85.0843 269.694 85.1459 269.441 85.269 269.246C85.3921 269.05 85.5566 268.896 85.7626 268.785C85.9685 268.674 86.1958 268.591 86.4444 268.536C86.6953 268.479 86.9475 268.434 87.2008 268.401C87.5322 268.359 87.8009 268.327 88.0069 268.305C88.2152 268.282 88.3667 268.243 88.4614 268.188C88.5585 268.134 88.607 268.039 88.607 267.904V267.876C88.607 267.525 88.5112 267.253 88.3194 267.059C88.13 266.865 87.8424 266.768 87.4565 266.768C87.0564 266.768 86.7427 266.855 86.5154 267.031C86.2882 267.206 86.1284 267.393 86.036 267.592L85.2406 267.308C85.3826 266.976 85.572 266.718 85.8087 266.533C86.0479 266.346 86.3083 266.216 86.59 266.143C86.8741 266.067 87.1534 266.029 87.4281 266.029C87.6033 266.029 87.8045 266.05 88.0318 266.093C88.2614 266.133 88.4828 266.217 88.6958 266.345C88.9113 266.473 89.09 266.666 89.232 266.924C89.3741 267.182 89.4451 267.528 89.4451 267.961V271.555H88.607V270.816H88.5644C88.5076 270.934 88.4129 271.061 88.2803 271.196C88.1478 271.331 87.9714 271.446 87.7512 271.54C87.531 271.635 87.2623 271.683 86.9451 271.683ZM87.073 270.93C87.4044 270.93 87.6837 270.865 87.911 270.734C88.1407 270.604 88.3135 270.436 88.4295 270.23C88.5479 270.024 88.607 269.808 88.607 269.58V268.813C88.5715 268.856 88.4934 268.895 88.3727 268.93C88.2543 268.964 88.117 268.993 87.9607 269.019C87.8069 269.043 87.6565 269.064 87.5097 269.083C87.3653 269.1 87.2481 269.114 87.1582 269.126C86.9404 269.154 86.7368 269.2 86.5474 269.264C86.3604 269.326 86.2088 269.419 86.0928 269.545C85.9792 269.668 85.9224 269.836 85.9224 270.049C85.9224 270.34 86.0301 270.56 86.2455 270.71C86.4633 270.856 86.7391 270.93 87.073 270.93ZM91.0748 271.555V266.1H91.8844V266.952H91.9554C92.0691 266.661 92.2526 266.435 92.5059 266.274C92.7592 266.111 93.0634 266.029 93.4185 266.029C93.7784 266.029 94.0778 266.111 94.3169 266.274C94.5584 266.435 94.7466 266.661 94.8816 266.952H94.9384C95.0781 266.671 95.2876 266.447 95.5669 266.281C95.8463 266.113 96.1813 266.029 96.5719 266.029C97.0596 266.029 97.4585 266.182 97.7687 266.487C98.0788 266.79 98.2339 267.263 98.2339 267.904V271.555H97.3958V267.904C97.3958 267.502 97.2857 267.214 97.0655 267.041C96.8454 266.868 96.5861 266.782 96.2878 266.782C95.9043 266.782 95.6072 266.898 95.3965 267.13C95.1858 267.36 95.0804 267.651 95.0804 268.004V271.555H94.2282V267.819C94.2282 267.509 94.1276 267.259 93.9263 267.07C93.7251 266.878 93.4659 266.782 93.1486 266.782C92.9308 266.782 92.7272 266.84 92.5378 266.956C92.3508 267.072 92.1993 267.233 92.0833 267.439C91.9696 267.643 91.9128 267.878 91.9128 268.146V271.555H91.0748Z" fill="#7C89A9"/>
<path d="M129.31 271.555H127.065V264.282H129.409C130.115 264.282 130.718 264.428 131.22 264.719C131.722 265.008 132.107 265.423 132.374 265.965C132.642 266.505 132.776 267.151 132.776 267.904C132.776 268.662 132.641 269.314 132.371 269.861C132.101 270.405 131.708 270.824 131.192 271.118C130.676 271.409 130.048 271.555 129.31 271.555ZM127.946 270.773H129.253C130.155 270.773 130.825 270.518 131.263 270.006C131.703 269.493 131.923 268.792 131.923 267.904C131.923 267.023 131.708 266.33 131.277 265.823C130.846 265.317 130.205 265.063 129.352 265.063H127.946V270.773ZM134.239 271.555V266.1H135.049V266.924H135.106C135.205 266.654 135.385 266.435 135.646 266.267C135.906 266.099 136.2 266.015 136.526 266.015C136.588 266.015 136.665 266.016 136.757 266.018C136.849 266.021 136.919 266.024 136.967 266.029V266.881C136.938 266.874 136.873 266.864 136.771 266.849C136.672 266.833 136.567 266.825 136.455 266.825C136.058 266.825 135.728 266.945 135.468 267.187C135.208 267.428 135.077 267.734 135.077 268.103V271.555H134.239ZM138.06 271.555V266.1H138.898V271.555H138.06ZM138.486 265.191C138.323 265.191 138.182 265.135 138.064 265.024C137.948 264.913 137.89 264.779 137.89 264.623C137.89 264.467 137.948 264.333 138.064 264.222C138.182 264.11 138.323 264.055 138.486 264.055C138.65 264.055 138.789 264.11 138.905 264.222C139.024 264.333 139.083 264.467 139.083 264.623C139.083 264.779 139.024 264.913 138.905 265.024C138.789 265.135 138.65 265.191 138.486 265.191ZM140.647 271.555V264.282H141.485V266.967H141.556C141.617 266.872 141.703 266.751 141.812 266.604C141.923 266.455 142.081 266.323 142.287 266.207C142.496 266.088 142.777 266.029 143.133 266.029C143.592 266.029 143.997 266.144 144.347 266.374C144.697 266.603 144.971 266.929 145.167 267.35C145.364 267.772 145.462 268.269 145.462 268.842C145.462 269.419 145.364 269.92 145.167 270.344C144.971 270.765 144.699 271.092 144.351 271.324C144.003 271.554 143.601 271.668 143.147 271.668C142.796 271.668 142.516 271.61 142.305 271.494C142.094 271.376 141.932 271.242 141.819 271.093C141.705 270.942 141.617 270.816 141.556 270.717H141.456V271.555H140.647ZM141.471 268.827C141.471 269.445 141.604 269.948 141.872 270.337C142.142 270.723 142.529 270.915 143.033 270.915C143.383 270.915 143.676 270.823 143.91 270.638C144.147 270.451 144.325 270.201 144.443 269.886C144.564 269.568 144.624 269.216 144.624 268.827C144.624 268.444 144.565 268.098 144.446 267.79C144.33 267.48 144.154 267.235 143.917 267.055C143.683 266.873 143.388 266.782 143.033 266.782C142.522 266.782 142.133 266.97 141.868 267.347C141.603 267.723 141.471 268.217 141.471 268.827ZM146.958 271.555V264.282H147.796V266.967H147.867C147.928 266.872 148.014 266.751 148.122 266.604C148.234 266.455 148.392 266.323 148.598 266.207C148.807 266.088 149.088 266.029 149.443 266.029C149.903 266.029 150.308 266.144 150.658 266.374C151.008 266.603 151.282 266.929 151.478 267.35C151.675 267.772 151.773 268.269 151.773 268.842C151.773 269.419 151.675 269.92 151.478 270.344C151.282 270.765 151.01 271.092 150.662 271.324C150.313 271.554 149.912 271.668 149.458 271.668C149.107 271.668 148.827 271.61 148.616 271.494C148.405 271.376 148.243 271.242 148.13 271.093C148.016 270.942 147.928 270.816 147.867 270.717H147.767V271.555H146.958ZM147.782 268.827C147.782 269.445 147.915 269.948 148.183 270.337C148.453 270.723 148.84 270.915 149.344 270.915C149.694 270.915 149.987 270.823 150.221 270.638C150.458 270.451 150.635 270.201 150.754 269.886C150.875 269.568 150.935 269.216 150.935 268.827C150.935 268.444 150.876 268.098 150.757 267.79C150.641 267.48 150.465 267.235 150.228 267.055C149.994 266.873 149.699 266.782 149.344 266.782C148.833 266.782 148.444 266.97 148.179 267.347C147.914 267.723 147.782 268.217 147.782 268.827ZM153.993 264.282V271.555H153.155V264.282H153.993ZM157.915 271.668C157.389 271.668 156.936 271.552 156.555 271.32C156.176 271.086 155.884 270.759 155.678 270.34C155.474 269.919 155.372 269.429 155.372 268.87C155.372 268.311 155.474 267.819 155.678 267.393C155.884 266.964 156.17 266.63 156.537 266.391C156.906 266.15 157.337 266.029 157.83 266.029C158.114 266.029 158.394 266.076 158.671 266.171C158.948 266.266 159.2 266.42 159.428 266.633C159.655 266.844 159.836 267.123 159.971 267.471C160.106 267.819 160.173 268.247 160.173 268.756V269.112H156.214C156.233 269.694 156.397 270.14 156.708 270.45C157.02 270.76 157.423 270.915 157.915 270.915C158.244 270.915 158.527 270.844 158.764 270.702C159 270.56 159.172 270.347 159.279 270.063L160.088 270.29C159.96 270.702 159.705 271.035 159.321 271.288C158.938 271.542 158.469 271.668 157.915 271.668ZM156.214 268.387H159.321C159.321 267.925 159.186 267.543 158.916 267.24C158.646 266.935 158.284 266.782 157.83 266.782C157.51 266.782 157.233 266.857 156.999 267.006C156.764 267.155 156.58 267.353 156.445 267.599C156.31 267.843 156.233 268.105 156.214 268.387Z" fill="#7C89A9"/>
<path d="M194.832 265.063V264.282H200.287V265.063H198V271.555H197.119V265.063H194.832ZM202.243 271.555L200.581 266.1H201.462L202.641 270.276H202.698L203.863 266.1H204.757L205.908 270.262H205.965L207.144 266.1H208.025L206.363 271.555H205.539L204.346 267.364H204.26L203.067 271.555H202.243ZM209.232 271.555V266.1H210.071V271.555H209.232ZM209.659 265.191C209.495 265.191 209.354 265.135 209.236 265.024C209.12 264.913 209.062 264.779 209.062 264.623C209.062 264.467 209.12 264.333 209.236 264.222C209.354 264.11 209.495 264.055 209.659 264.055C209.822 264.055 209.962 264.11 210.078 264.222C210.196 264.333 210.255 264.467 210.255 264.623C210.255 264.779 210.196 264.913 210.078 265.024C209.962 265.135 209.822 265.191 209.659 265.191ZM214.078 266.1V266.81H212.913V269.992C212.913 270.229 212.947 270.406 213.016 270.525C213.087 270.641 213.177 270.719 213.286 270.759C213.397 270.797 213.514 270.816 213.637 270.816C213.73 270.816 213.805 270.811 213.865 270.802C213.924 270.79 213.971 270.781 214.007 270.773L214.177 271.526C214.12 271.548 214.041 271.569 213.939 271.59C213.837 271.614 213.708 271.626 213.552 271.626C213.315 271.626 213.083 271.575 212.856 271.473C212.631 271.371 212.444 271.216 212.295 271.008C212.148 270.799 212.075 270.537 212.075 270.219V266.81H211.251V266.1H212.075V264.793H212.913V266.1H214.078ZM217.81 266.1V266.81H216.646V269.992C216.646 270.229 216.68 270.406 216.749 270.525C216.82 270.641 216.91 270.719 217.019 270.759C217.13 270.797 217.247 270.816 217.37 270.816C217.462 270.816 217.538 270.811 217.597 270.802C217.657 270.79 217.704 270.781 217.739 270.773L217.91 271.526C217.853 271.548 217.774 271.569 217.672 271.59C217.57 271.614 217.441 271.626 217.285 271.626C217.048 271.626 216.816 271.575 216.589 271.473C216.364 271.371 216.177 271.216 216.028 271.008C215.881 270.799 215.808 270.537 215.808 270.219V266.81H214.984V266.1H215.808V264.793H216.646V266.1H217.81ZM221.399 271.668C220.874 271.668 220.421 271.552 220.039 271.32C219.661 271.086 219.368 270.759 219.162 270.34C218.959 269.919 218.857 269.429 218.857 268.87C218.857 268.311 218.959 267.819 219.162 267.393C219.368 266.964 219.655 266.63 220.022 266.391C220.391 266.15 220.822 266.029 221.314 266.029C221.598 266.029 221.879 266.076 222.156 266.171C222.433 266.266 222.685 266.42 222.912 266.633C223.14 266.844 223.321 267.123 223.456 267.471C223.591 267.819 223.658 268.247 223.658 268.756V269.112H219.698C219.717 269.694 219.882 270.14 220.192 270.45C220.505 270.76 220.907 270.915 221.399 270.915C221.729 270.915 222.011 270.844 222.248 270.702C222.485 270.56 222.657 270.347 222.763 270.063L223.573 270.29C223.445 270.702 223.189 271.035 222.806 271.288C222.422 271.542 221.953 271.668 221.399 271.668ZM219.698 268.387H222.806C222.806 267.925 222.671 267.543 222.401 267.24C222.131 266.935 221.769 266.782 221.314 266.782C220.995 266.782 220.718 266.857 220.483 267.006C220.249 267.155 220.064 267.353 219.929 267.599C219.794 267.843 219.717 268.105 219.698 268.387ZM225.033 271.555V266.1H225.843V266.924H225.899C225.996 266.654 226.175 266.435 226.436 266.267C226.696 266.099 226.991 266.015 227.32 266.015C227.471 266.015 227.604 266.033 227.718 266.068C227.831 266.104 227.931 266.152 228.016 266.214L227.732 266.924C227.673 266.893 227.603 266.87 227.522 266.853C227.444 266.834 227.353 266.825 227.249 266.825C226.851 266.825 226.522 266.946 226.262 267.19C226.001 267.432 225.871 267.736 225.871 268.103V271.555H225.033Z" fill="#7C89A9"/>
<circle cx="43.4225" cy="267.865" r="3.34044" fill="#703FFB"/>
<circle cx="119.883" cy="267.865" r="3.34044" fill="#DE287A"/>
<circle cx="188.176" cy="267.865" r="3.34044" fill="#FCAE56"/>
<circle cx="136.216" cy="154.286" r="27.0947" stroke="#F0F3F9" stroke-width="5.93856"/>
<circle cx="136.216" cy="154.286" r="52.3336" stroke="#F0F3F9" stroke-width="5.93856"/>
<circle cx="136.217" cy="154.287" r="77.5725" stroke="#F0F3F9" stroke-width="5.93856"/>
<mask id="path-12-inside-1_220_19" fill="white">
<path d="M132.546 76.7998C132.469 75.1627 133.733 73.767 135.372 73.7498C150.532 73.5905 165.452 77.7144 178.401 85.6759C192.194 94.1562 203.111 106.597 209.727 121.375C216.344 136.153 218.353 152.582 215.492 168.518C212.631 184.455 205.033 199.159 193.689 210.713C182.346 222.267 167.784 230.134 151.902 233.287C136.021 236.44 119.557 234.733 104.661 228.389C89.7636 222.046 77.1246 211.359 68.3923 197.724C60.1943 184.923 55.7971 170.082 55.6779 154.921C55.665 153.283 57.0372 151.993 58.6755 152.04C60.3137 152.088 61.5971 153.455 61.6148 155.093C61.7656 169.061 65.8358 182.727 73.3903 194.523C81.479 207.153 93.1867 217.053 106.986 222.929C120.785 228.805 136.035 230.386 150.746 227.465C165.457 224.545 178.947 217.258 189.454 206.555C199.962 195.853 207 182.232 209.65 167.47C212.3 152.707 210.439 137.489 204.31 123.8C198.182 110.111 188.069 98.5872 175.292 90.7318C163.36 83.3952 149.621 79.5768 135.653 79.6825C134.014 79.6949 132.624 78.4369 132.546 76.7998Z"/>
</mask>
<path d="M132.546 76.7998C132.469 75.1627 133.733 73.767 135.372 73.7498C150.532 73.5905 165.452 77.7144 178.401 85.6759C192.194 94.1562 203.111 106.597 209.727 121.375C216.344 136.153 218.353 152.582 215.492 168.518C212.631 184.455 205.033 199.159 193.689 210.713C182.346 222.267 167.784 230.134 151.902 233.287C136.021 236.44 119.557 234.733 104.661 228.389C89.7636 222.046 77.1246 211.359 68.3923 197.724C60.1943 184.923 55.7971 170.082 55.6779 154.921C55.665 153.283 57.0372 151.993 58.6755 152.04C60.3137 152.088 61.5971 153.455 61.6148 155.093C61.7656 169.061 65.8358 182.727 73.3903 194.523C81.479 207.153 93.1867 217.053 106.986 222.929C120.785 228.805 136.035 230.386 150.746 227.465C165.457 224.545 178.947 217.258 189.454 206.555C199.962 195.853 207 182.232 209.65 167.47C212.3 152.707 210.439 137.489 204.31 123.8C198.182 110.111 188.069 98.5872 175.292 90.7318C163.36 83.3952 149.621 79.5768 135.653 79.6825C134.014 79.6949 132.624 78.4369 132.546 76.7998Z" stroke="#703FFB" stroke-width="11.8771" mask="url(#path-12-inside-1_220_19)"/>
<mask id="path-13-inside-2_220_19" fill="white">
<path d="M133.08 127.371C132.89 125.743 134.057 124.255 135.696 124.226C138.921 124.171 142.141 124.634 145.231 125.605C149.267 126.874 152.989 128.98 156.155 131.785C159.321 134.59 161.859 138.032 163.604 141.886C165.349 145.74 166.26 149.918 166.28 154.148C166.299 158.378 165.426 162.565 163.716 166.434C162.007 170.303 159.501 173.769 156.36 176.603C153.22 179.437 149.517 181.577 145.494 182.882C142.413 183.882 139.197 184.375 135.971 184.349C134.333 184.335 133.152 182.858 133.327 181.228C133.501 179.599 134.967 178.439 136.605 178.413C138.997 178.374 141.376 177.98 143.663 177.238C146.892 176.19 149.864 174.473 152.384 172.198C154.905 169.923 156.917 167.142 158.289 164.036C159.66 160.931 160.362 157.57 160.346 154.175C160.33 150.78 159.599 147.426 158.198 144.333C156.798 141.24 154.761 138.478 152.22 136.226C149.678 133.974 146.691 132.284 143.452 131.266C141.159 130.545 138.776 130.173 136.384 130.156C134.745 130.145 133.269 128.998 133.08 127.371Z"/>
</mask>
<path d="M133.08 127.371C132.89 125.743 134.057 124.255 135.696 124.226C138.921 124.171 142.141 124.634 145.231 125.605C149.267 126.874 152.989 128.98 156.155 131.785C159.321 134.59 161.859 138.032 163.604 141.886C165.349 145.74 166.26 149.918 166.28 154.148C166.299 158.378 165.426 162.565 163.716 166.434C162.007 170.303 159.501 173.769 156.36 176.603C153.22 179.437 149.517 181.577 145.494 182.882C142.413 183.882 139.197 184.375 135.971 184.349C134.333 184.335 133.152 182.858 133.327 181.228C133.501 179.599 134.967 178.439 136.605 178.413C138.997 178.374 141.376 177.98 143.663 177.238C146.892 176.19 149.864 174.473 152.384 172.198C154.905 169.923 156.917 167.142 158.289 164.036C159.66 160.931 160.362 157.57 160.346 154.175C160.33 150.78 159.599 147.426 158.198 144.333C156.798 141.24 154.761 138.478 152.22 136.226C149.678 133.974 146.691 132.284 143.452 131.266C141.159 130.545 138.776 130.173 136.384 130.156C134.745 130.145 133.269 128.998 133.08 127.371Z" stroke="#FCAE56" stroke-width="11.8771" mask="url(#path-13-inside-2_220_19)"/>
<mask id="path-14-inside-3_220_19" fill="white">
<path d="M132.655 102.073C132.544 100.437 133.78 99.0127 135.419 98.989C143.846 98.8674 152.205 100.674 159.849 104.287C168.389 108.323 175.753 114.48 181.238 122.17C186.724 129.86 190.148 138.826 191.185 148.215C192.222 157.604 190.837 167.102 187.162 175.804C183.486 184.505 177.644 192.12 170.19 197.923C162.737 203.726 153.921 207.523 144.584 208.952C135.247 210.382 125.7 209.395 116.852 206.088C108.932 203.127 101.809 198.395 96.0204 192.269C94.8946 191.077 95.0541 189.198 96.3042 188.138C97.5543 187.078 99.421 187.239 100.554 188.423C105.682 193.78 111.96 197.922 118.93 200.528C126.828 203.48 135.351 204.36 143.686 203.085C152.021 201.809 159.89 198.419 166.544 193.239C173.197 188.059 178.412 181.262 181.693 173.494C184.974 165.726 186.211 157.248 185.285 148.867C184.359 140.486 181.302 132.482 176.406 125.617C171.509 118.753 164.936 113.257 157.312 109.654C150.585 106.474 143.238 104.862 135.823 104.921C134.184 104.934 132.767 103.708 132.655 102.073Z"/>
</mask>
<path d="M132.655 102.073C132.544 100.437 133.78 99.0127 135.419 98.989C143.846 98.8674 152.205 100.674 159.849 104.287C168.389 108.323 175.753 114.48 181.238 122.17C186.724 129.86 190.148 138.826 191.185 148.215C192.222 157.604 190.837 167.102 187.162 175.804C183.486 184.505 177.644 192.12 170.19 197.923C162.737 203.726 153.921 207.523 144.584 208.952C135.247 210.382 125.7 209.395 116.852 206.088C108.932 203.127 101.809 198.395 96.0204 192.269C94.8946 191.077 95.0541 189.198 96.3042 188.138C97.5543 187.078 99.421 187.239 100.554 188.423C105.682 193.78 111.96 197.922 118.93 200.528C126.828 203.48 135.351 204.36 143.686 203.085C152.021 201.809 159.89 198.419 166.544 193.239C173.197 188.059 178.412 181.262 181.693 173.494C184.974 165.726 186.211 157.248 185.285 148.867C184.359 140.486 181.302 132.482 176.406 125.617C171.509 118.753 164.936 113.257 157.312 109.654C150.585 106.474 143.238 104.862 135.823 104.921C134.184 104.934 132.767 103.708 132.655 102.073Z" stroke="#DE287A" stroke-width="11.8771" mask="url(#path-14-inside-3_220_19)"/>
<g filter="url(#filter1_d_220_19)">
<rect x="20.0428" y="104.924" width="74.232" height="34.1467" rx="4" fill="white"/>
</g>
<path d="M33.2913 127.619V114.891H34.1067V127.619H33.2913ZM35.6429 118.963C35.5965 118.529 35.4009 118.191 35.0562 117.949C34.7149 117.707 34.2707 117.586 33.7239 117.586C33.3394 117.586 33.0096 117.644 32.7345 117.76C32.4594 117.876 32.249 118.033 32.1031 118.232C31.9573 118.431 31.8827 118.658 31.8794 118.913C31.8794 119.125 31.9275 119.309 32.0236 119.465C32.123 119.621 32.2572 119.753 32.4263 119.863C32.5953 119.969 32.7826 120.058 32.9881 120.131C33.1936 120.204 33.4007 120.266 33.6095 120.315L34.5641 120.554C34.9485 120.643 35.3181 120.764 35.6727 120.917C36.0307 121.069 36.3505 121.262 36.6322 121.494C36.9173 121.726 37.1427 122.006 37.3084 122.334C37.4741 122.662 37.557 123.046 37.557 123.487C37.557 124.084 37.4045 124.609 37.0996 125.063C36.7946 125.514 36.3538 125.867 35.7771 126.122C35.2037 126.374 34.5094 126.5 33.694 126.5C32.9019 126.5 32.2142 126.377 31.6308 126.132C31.0508 125.887 30.5967 125.529 30.2686 125.058C29.9438 124.588 29.7681 124.014 29.7416 123.338H31.5562C31.5828 123.693 31.6921 123.988 31.8844 124.223C32.0766 124.458 32.3268 124.634 32.6351 124.75C32.9466 124.866 33.2946 124.924 33.6791 124.924C34.0802 124.924 34.4315 124.864 34.7331 124.745C35.038 124.622 35.2767 124.453 35.449 124.238C35.6214 124.019 35.7092 123.764 35.7125 123.472C35.7092 123.207 35.6313 122.988 35.4788 122.816C35.3264 122.64 35.1126 122.494 34.8375 122.378C34.5657 122.259 34.2475 122.153 33.883 122.06L32.7246 121.762C31.886 121.547 31.2232 121.22 30.7359 120.783C30.252 120.342 30.0101 119.757 30.0101 119.028C30.0101 118.428 30.1725 117.902 30.4973 117.452C30.8254 117.001 31.2712 116.651 31.8347 116.403C32.3981 116.151 33.0361 116.025 33.7487 116.025C34.4713 116.025 35.1043 116.151 35.6479 116.403C36.1947 116.651 36.624 116.998 36.9355 117.442C37.2471 117.883 37.4078 118.39 37.4178 118.963H35.6429ZM43.2432 116.164V126.346H41.3988V117.959H41.3391L38.9577 119.48V117.79L41.4882 116.164H43.2432ZM49.4826 126.485C48.7667 126.485 48.1303 126.362 47.5735 126.117C47.02 125.872 46.5825 125.53 46.261 125.093C45.9395 124.655 45.7688 124.15 45.7489 123.577H47.6182C47.6348 123.852 47.7259 124.092 47.8917 124.298C48.0574 124.5 48.2778 124.657 48.5529 124.77C48.828 124.883 49.1362 124.939 49.4776 124.939C49.8422 124.939 50.1653 124.876 50.4471 124.75C50.7288 124.621 50.9492 124.442 51.1083 124.213C51.2674 123.984 51.3453 123.721 51.3419 123.423C51.3453 123.114 51.2657 122.843 51.1033 122.607C50.9409 122.372 50.7056 122.188 50.3973 122.055C50.0924 121.923 49.7245 121.856 49.2936 121.856H48.3938V120.435H49.2936C49.6483 120.435 49.9582 120.373 50.2233 120.251C50.4918 120.128 50.7023 119.956 50.8547 119.734C51.0072 119.508 51.0818 119.248 51.0784 118.953C51.0818 118.665 51.0171 118.414 50.8846 118.202C50.7553 117.987 50.5713 117.82 50.3327 117.7C50.0974 117.581 49.8206 117.521 49.5024 117.521C49.1909 117.521 48.9025 117.578 48.6374 117.69C48.3722 117.803 48.1585 117.964 47.9961 118.173C47.8337 118.378 47.7475 118.623 47.7375 118.908H45.9627C45.9759 118.338 46.14 117.838 46.4549 117.407C46.773 116.973 47.1973 116.635 47.7276 116.393C48.2579 116.147 48.8528 116.025 49.5124 116.025C50.1918 116.025 50.7818 116.152 51.2823 116.408C51.7861 116.66 52.1755 116.999 52.4506 117.427C52.7257 117.854 52.8632 118.327 52.8632 118.844C52.8666 119.417 52.6975 119.898 52.3561 120.285C52.0181 120.673 51.5739 120.927 51.0238 121.046V121.126C51.7397 121.225 52.2882 121.49 52.6694 121.921C53.0538 122.349 53.2444 122.881 53.2411 123.517C53.2411 124.087 53.0787 124.597 52.7539 125.048C52.4324 125.496 51.9882 125.847 51.4215 126.102C50.858 126.357 50.2117 126.485 49.4826 126.485ZM56.7796 124.954L56.715 125.501C56.6686 125.918 56.5857 126.343 56.4664 126.773C56.3504 127.208 56.2278 127.607 56.0985 127.972C55.9692 128.336 55.8648 128.623 55.7853 128.832H54.5722C54.6186 128.629 54.6816 128.354 54.7612 128.006C54.844 127.658 54.9236 127.267 54.9998 126.833C55.076 126.399 55.1274 125.958 55.1539 125.511L55.1887 124.954H56.7796ZM62.0122 126.485C61.2731 126.485 60.6169 126.361 60.0435 126.112C59.4734 125.864 59.0259 125.524 58.7011 125.093C58.3796 124.659 58.2205 124.167 58.2239 123.616C58.2205 123.189 58.3134 122.796 58.5023 122.438C58.6912 122.08 58.9464 121.782 59.2679 121.543C59.5927 121.301 59.954 121.147 60.3517 121.081V121.011C59.828 120.895 59.4038 120.628 59.079 120.211C58.7575 119.79 58.5984 119.304 58.6017 118.754C58.5984 118.231 58.7442 117.763 59.0392 117.352C59.3342 116.941 59.7385 116.618 60.2523 116.383C60.766 116.144 61.3527 116.025 62.0122 116.025C62.6652 116.025 63.2468 116.144 63.7572 116.383C64.271 116.618 64.6753 116.941 64.9703 117.352C65.2686 117.763 65.4178 118.231 65.4178 118.754C65.4178 119.304 65.2537 119.79 64.9256 120.211C64.6008 120.628 64.1815 120.895 63.6678 121.011V121.081C64.0655 121.147 64.4234 121.301 64.7416 121.543C65.0631 121.782 65.3183 122.08 65.5072 122.438C65.6995 122.796 65.7956 123.189 65.7956 123.616C65.7956 124.167 65.6332 124.659 65.3084 125.093C64.9836 125.524 64.5361 125.864 63.9661 126.112C63.3993 126.361 62.748 126.485 62.0122 126.485ZM62.0122 125.063C62.3934 125.063 62.7248 124.999 63.0065 124.869C63.2883 124.737 63.507 124.551 63.6628 124.312C63.8186 124.074 63.8981 123.799 63.9014 123.487C63.8981 123.162 63.8136 122.876 63.6479 122.627C63.4855 122.375 63.2617 122.178 62.9767 122.035C62.695 121.893 62.3735 121.822 62.0122 121.822C61.6476 121.822 61.3228 121.893 61.0378 122.035C60.7527 122.178 60.5274 122.375 60.3616 122.627C60.1992 122.876 60.1197 123.162 60.123 123.487C60.1197 123.799 60.1959 124.074 60.3517 124.312C60.5075 124.548 60.7262 124.732 61.008 124.864C61.293 124.997 61.6277 125.063 62.0122 125.063ZM62.0122 120.425C62.3238 120.425 62.5989 120.362 62.8375 120.236C63.0795 120.11 63.27 119.934 63.4092 119.709C63.5484 119.483 63.6197 119.223 63.623 118.928C63.6197 118.637 63.5501 118.381 63.4142 118.163C63.2783 117.941 63.0894 117.77 62.8474 117.651C62.6055 117.528 62.3271 117.467 62.0122 117.467C61.6907 117.467 61.4073 117.528 61.1621 117.651C60.9201 117.77 60.7312 117.941 60.5953 118.163C60.4627 118.381 60.3981 118.637 60.4014 118.928C60.3981 119.223 60.4644 119.483 60.6003 119.709C60.7395 119.931 60.9301 120.106 61.172 120.236C61.4173 120.362 61.6973 120.425 62.0122 120.425ZM71.0841 126.485C70.3682 126.485 69.7319 126.362 69.175 126.117C68.6215 125.872 68.184 125.53 67.8625 125.093C67.541 124.655 67.3703 124.15 67.3505 123.577H69.2198C69.2364 123.852 69.3275 124.092 69.4932 124.298C69.6589 124.5 69.8793 124.657 70.1544 124.77C70.4295 124.883 70.7378 124.939 71.0792 124.939C71.4437 124.939 71.7669 124.876 72.0486 124.75C72.3303 124.621 72.5507 124.442 72.7098 124.213C72.8689 123.984 72.9468 123.721 72.9435 123.423C72.9468 123.114 72.8673 122.843 72.7049 122.607C72.5425 122.372 72.3071 122.188 71.9989 122.055C71.694 121.923 71.3261 121.856 70.8952 121.856H69.9953V120.435H70.8952C71.2498 120.435 71.5597 120.373 71.8249 120.251C72.0934 120.128 72.3038 119.956 72.4563 119.734C72.6087 119.508 72.6833 119.248 72.68 118.953C72.6833 118.665 72.6187 118.414 72.4861 118.202C72.3569 117.987 72.1729 117.82 71.9343 117.7C71.6989 117.581 71.4222 117.521 71.104 117.521C70.7925 117.521 70.5041 117.578 70.239 117.69C69.9738 117.803 69.76 117.964 69.5976 118.173C69.4352 118.378 69.349 118.623 69.3391 118.908H67.5642C67.5775 118.338 67.7416 117.838 68.0564 117.407C68.3746 116.973 68.7989 116.635 69.3292 116.393C69.8595 116.147 70.4544 116.025 71.114 116.025C71.7934 116.025 72.3834 116.152 72.8838 116.408C73.3876 116.66 73.7771 116.999 74.0522 117.427C74.3273 117.854 74.4648 118.327 74.4648 118.844C74.4681 119.417 74.2991 119.898 73.9577 120.285C73.6196 120.673 73.1755 120.927 72.6253 121.046V121.126C73.3412 121.225 73.8898 121.49 74.2709 121.921C74.6554 122.349 74.846 122.881 74.8426 123.517C74.8426 124.087 74.6802 124.597 74.3554 125.048C74.0339 125.496 73.5898 125.847 73.023 126.102C72.4596 126.357 71.8133 126.485 71.0841 126.485ZM76.5491 126.346V125.013L80.0839 121.548C80.422 121.207 80.7037 120.904 80.9291 120.638C81.1545 120.373 81.3235 120.116 81.4362 119.868C81.5489 119.619 81.6053 119.354 81.6053 119.072C81.6053 118.751 81.5323 118.476 81.3865 118.247C81.2407 118.015 81.0402 117.836 80.7849 117.71C80.5297 117.584 80.2397 117.521 79.9149 117.521C79.5802 117.521 79.2868 117.591 79.0349 117.73C78.783 117.866 78.5875 118.06 78.4483 118.312C78.3124 118.564 78.2445 118.864 78.2445 119.212H76.4895C76.4895 118.565 76.637 118.003 76.932 117.526C77.2269 117.049 77.633 116.679 78.15 116.418C78.6704 116.156 79.267 116.025 79.9398 116.025C80.6225 116.025 81.2224 116.152 81.7395 116.408C82.2565 116.663 82.6576 117.012 82.9426 117.457C83.231 117.901 83.3751 118.408 83.3751 118.978C83.3751 119.359 83.3022 119.734 83.1564 120.102C83.0106 120.469 82.7537 120.877 82.3858 121.325C82.0212 121.772 81.5091 122.314 80.8496 122.95L79.0946 124.735V124.805H83.5293V126.346H76.5491Z" fill="#6A35FF"/>
<defs>
<filter id="filter0_d_220_19" x="-63" y="-24" width="378.72" height="406.928" filterUnits="userSpaceOnUse" color-interpolation-filters="sRGB">
<feFlood flood-opacity="0" result="BackgroundImageFix"/>
<feColorMatrix in="SourceAlpha" type="matrix" values="0 0 0 0 0 0 0 0 0 0 0 0 0 0 0 0 0 0 127 0" result="hardAlpha"/>
<feMorphology radius="25" operator="erode" in="SourceAlpha" result="effect1_dropShadow_220_19"/>
<feOffset dx="-8" dy="30"/>
<feGaussianBlur stdDeviation="40"/>
<feColorMatrix type="matrix" values="0 0 0 0 0.320833 0 0 0 0 0.320833 0 0 0 0 0.320833 0 0 0 0.1 0"/>
<feBlend mode="normal" in2="BackgroundImageFix" result="effect1_dropShadow_220_19"/>
<feBlend mode="normal" in="SourceGraphic" in2="effect1_dropShadow_220_19" result="shape"/>
</filter>
<filter id="filter1_d_220_19" x="0.0427551" y="94.924" width="134.232" height="94.1467" filterUnits="userSpaceOnUse" color-interpolation-filters="sRGB">
<feFlood flood-opacity="0" result="BackgroundImageFix"/>
<feColorMatrix in="SourceAlpha" type="matrix" values="0 0 0 0 0 0 0 0 0 0 0 0 0 0 0 0 0 0 127 0" result="hardAlpha"/>
<feOffset dx="10" dy="20"/>
<feGaussianBlur stdDeviation="15"/>
<feColorMatrix type="matrix" values="0 0 0 0 0 0 0 0 0 0 0 0 0 0 0 0 0 0 0.04 0"/>
<feBlend mode="normal" in2="BackgroundImageFix" result="effect1_dropShadow_220_19"/>
<feBlend mode="normal" in="SourceGraphic" in2="effect1_dropShadow_220_19" result="shape"/>
</filter>
</defs>
</svg>
